#!OML:ASF H:\Dans Jumps\Project 1\Capture day 1\Session 1\subject.ASF
:FULLY-SPECIFIED
:DEGREES
210
root 0.135301 15.035 -14.9229 30.2472 2.44331 -0.906658
lowerback 20.7959 0.531605 -2.19914
upperback -0.00346133 0.513135 2.83392
thorax -11.7737 0.475554 4.27084
lowerneck -23.8295 -0.453961 -2.33966
upperneck 7.50364 -0.00038093 0.787113
head 6.05939 -0.00554979 0.627111
rclavicle -7.7526e-015 -8.34896e-015
rhumerus -25.168 -23.728 -73.7125
rradius 19.8659
rwrist 37.6074
rhand -18.2137 -26.08
rfingers 7.12502
rthumb 8.0641 -55.9061
lclavicle -7.7526e-015 -8.34896e-015
lhumerus -23.1878 31.8662 73.5158
lradius 6.4109
lwrist -21.4297
lhand -25.3274 -2.96784
lfingers 7.12502
lthumb 1.19536 27.0086
rfemur -69.9001 0.176392 20.631
rtibia 73.3449
rfoot -32.7554 -20.1856
rtoes 5.72985
lfemur -70.3082 1.78141 -18.118
ltibia 71.7704
lfoot -27.9722 21.8387
ltoes -7.85753
211
root 0.124507 14.9719 -14.8629 30.3878 2.43268 -1.06518
lowerback 20.9861 0.619722 -2.22074
upperback -0.118256 0.630209 2.88727
thorax -12.0248 0.540545 4.31329
lowerneck -24.069 -0.453719 -2.29821
upperneck 7.31965 -0.00491059 0.775417
head 6.03536 -0.0059593 0.616041
rclavicle -4.96962e-015 -2.22639e-014
rhumerus -24.4631 -24.473 -73.6914
rradius 19.6024
rwrist 38.7932
rhand -18.388 -26.0898
rfingers 7.12502
rthumb 7.89588 -55.9224
lclavicle -4.96962e-015 -2.22639e-014
lhumerus -22.3181 32.4489 73.9076
lradius 5.91157
lwrist -21.9945
lhand -25.6139 -2.70844
lfingers 7.12502
lthumb 0.918696 27.2693
rfemur -70.2176 0.246378 20.8844
rtibia 74.0733
rfoot -32.8877 -20.4751
rtoes 5.76472
lfemur -70.69 1.92335 -17.9224
ltibia 72.6048
lfoot -27.9571 21.8989
ltoes -7.70553
212
root 0.113936 14.9135 -14.7965 30.4748 2.397 -1.22987
lowerback 21.1506 0.718793 -2.2661
upperback -0.223837 0.756307 2.94184
thorax -12.2531 0.610623 4.36695
lowerneck -24.2825 -0.441223 -2.22332
upperneck 7.14176 -0.000458641 0.735555
head 6.00909 -0.00360918 0.591549
rclavicle -7.15625e-015 2.5842e-014
rhumerus -23.7314 -25.2108 -73.685
rradius 19.3939
rwrist 40.1239
rhand -18.5107 -26.0538
rfingers 7.12502
rthumb 7.77742 -55.8908
lclavicle -7.15625e-015 2.5842e-014
lhumerus -21.454 33.0193 74.304
lradius 5.50064
lwrist -22.609
lhand -25.7916 -2.419
lfingers 7.12502
lthumb 0.747007 27.5594
rfemur -70.411 0.30161 21.157
rtibia 74.7356
rfoot -33.0236 -20.7711
rtoes 5.7225
lfemur -70.942 2.13149 -17.7596
ltibia 73.3845
lfoot -27.9822 21.9794
ltoes -7.61111
213
root 0.103761 14.8608 -14.7229 30.5168 2.33817 -1.3936
lowerback 21.2806 0.828075 -2.33436
upperback -0.327215 0.890547 2.99625
thorax -12.4615 0.68554 4.43006
lowerneck -24.4807 -0.426887 -2.13433
upperneck 6.98975 0.00334854 0.680741
head 5.98887 -0.00273519 0.559918
rclavicle 3.97569e-016 -2.82274e-014
rhumerus -22.9921 -25.9153 -73.6897
rradius 19.2515
rwrist 41.4533
rhand -18.5901 -25.9424
rfingers 7.12502
rthumb 7.70081 -55.7822
lclavicle 3.97569e-016 -2.82274e-014
lhumerus -20.617 33.5683 74.6969
lradius 5.1947
lwrist -23.1931
lhand -25.8638 -2.2067
lfingers 7.12502
lthumb 0.677305 27.772
rfemur -70.4786 0.331221 21.441
rtibia 75.3215
rfoot -33.1876 -21.0276
rtoes 5.61367
lfemur -71.0636 2.40116 -17.6371
ltibia 74.097
lfoot -28.0591 22.0901
ltoes -7.6117
214
root 0.0938919 14.8144 -14.6425 30.5387 2.26862 -1.55365
lowerback 21.3603 0.939865 -2.41791
upperback -0.438594 1.02513 3.05166
thorax -12.652 0.761571 4.50214
lowerneck -24.6847 -0.415003 -2.05163
upperneck 6.88038 0.00532001 0.628068
head 5.98334 -0.00307404 0.529838
rclavicle 8.74653e-015 2.78299e-014
rhumerus -22.254 -26.5088 -73.7256
rradius 19.1969
rwrist 42.5495
rhand -18.6528 -25.7865
rfingers 7.12502
rthumb 7.64031 -55.6285
lclavicle 8.74653e-015 2.78299e-014
lhumerus -19.834 34.0969 75.0676
lradius 5.02527
lwrist -23.7043
lhand -25.7903 -2.07096
lfingers 7.12502
lthumb 0.748299 27.9075
rfemur -70.4445 0.326219 21.7359
rtibia 75.8231
rfoot -33.3832 -21.2389
rtoes 5.37209
lfemur -71.0797 2.71476 -17.5451
ltibia 74.731
lfoot -28.1923 22.234
ltoes -7.76167
215
root 0.0846134 14.7756 -14.5546 30.5466 2.20363 -1.7136
lowerback 21.3883 1.04716 -2.4967
upperback -0.564289 1.1562 3.10902
thorax -12.8303 0.835977 4.57415
lowerneck -24.8881 -0.410299 -1.98191
upperneck 6.80891 0.000654625 0.58132
head 5.99007 -0.00678209 0.503003
rclavicle -6.75868e-015 -7.55382e-015
rhumerus -21.53 -26.8789 -73.8159
rradius 19.2584
rwrist 43.1657
rhand -18.7256 -25.6535
rfingers 7.12502
rthumb 7.57 -55.4981
lclavicle -6.75868e-015 -7.55382e-015
lhumerus -19.1206 34.6007 75.4041
lradius 4.99524
lwrist -24.1568
lhand -25.5432 -1.95646
lfingers 7.12502
lthumb 0.986917 28.021
rfemur -70.302 0.276486 22.0487
rtibia 76.227
rfoot -33.6149 -21.4208
rtoes 4.92697
lfemur -70.9873 3.05318 -17.4663
ltibia 75.2711
lfoot -28.3925 22.4041
ltoes -8.13064
